<svg xmlns="http://www.w3.org/2000/svg" xmlns:xlink="http://www.w3.org/1999/xlink" width="90.678mm" height="59.055mm" viewBox="4010.5 3064.5 357 232.5"><title></title><style type="text/css">
*[layerid="1"] {stroke:#000000;fill:#000000;}
*[layerid="2"] {stroke:#000000;fill:#000000;}
*[layerid="3"] {stroke:#000000;fill:#000000;}
*[layerid="4"] {stroke:#000000;fill:#000000;}
*[layerid="5"] {stroke:#000000;fill:#000000;}
*[layerid="6"] {stroke:#000000;fill:#000000;}
*[layerid="7"] {stroke:#000000;fill:#000000;}
*[layerid="8"] {stroke:#000000;fill:#000000;}
*[layerid="9"] {stroke:#000000;fill:#000000;}
*[layerid="10"] {stroke:#000000;fill:#000000;}
*[layerid="11"] {stroke:#000000;fill:#000000;}
*[layerid="12"] {stroke:#000000;fill:#000000;}
*[layerid="13"] {stroke:#000000;fill:#000000;}
*[layerid="14"] {stroke:#000000;fill:#000000;}
*[layerid="15"] {stroke:#000000;fill:#000000;}
*[layerid="19"] {stroke:#000000;fill:#000000;}
*[layerid="21"] {stroke:#000000;fill:#000000;}
*[layerid="22"] {stroke:#000000;fill:#000000;}
*[layerid="23"] {stroke:#000000;fill:#000000;}
*[layerid="24"] {stroke:#000000;fill:#000000;}
*[layerid="25"] {stroke:#000000;fill:#000000;}
*[layerid="26"] {stroke:#000000;fill:#000000;}
*[layerid="27"] {stroke:#000000;fill:#000000;}
*[layerid="28"] {stroke:#000000;fill:#000000;}
*[layerid="29"] {stroke:#000000;fill:#000000;}
*[layerid="30"] {stroke:#000000;fill:#000000;}
*[layerid="31"] {stroke:#000000;fill:#000000;}
*[layerid="32"] {stroke:#000000;fill:#000000;}
*[layerid="33"] {stroke:#000000;fill:#000000;}
*[layerid="34"] {stroke:#000000;fill:#000000;}
*[layerid="35"] {stroke:#000000;fill:#000000;}
*[layerid="36"] {stroke:#000000;fill:#000000;}
*[layerid="37"] {stroke:#000000;fill:#000000;}
*[layerid="38"] {stroke:#000000;fill:#000000;}
*[layerid="39"] {stroke:#000000;fill:#000000;}
*[layerid="40"] {stroke:#000000;fill:#000000;}
*[layerid="41"] {stroke:#000000;fill:#000000;}
*[layerid="42"] {stroke:#000000;fill:#000000;}
*[layerid="43"] {stroke:#000000;fill:#000000;}
*[layerid="44"] {stroke:#000000;fill:#000000;}
*[layerid="45"] {stroke:#000000;fill:#000000;}
*[layerid="46"] {stroke:#000000;fill:#000000;}
*[layerid="47"] {stroke:#000000;fill:#000000;}
*[layerid="48"] {stroke:#000000;fill:#000000;}
*[layerid="49"] {stroke:#000000;fill:#000000;}
*[layerid="50"] {stroke:#000000;fill:#000000;}
*[layerid="51"] {stroke:#000000;fill:#000000;}
*[layerid="52"] {stroke:#000000;fill:#000000;}
*[layerid="99"] {stroke:#000000;fill:#000000;}
*[layerid="100"] {stroke:#000000;fill:#000000;}
*[layerid="101"] {stroke:#000000;fill:#000000;}
*[layerid="Hole"] {stroke:#000000;fill:#000000;}
*[layerid="DRCError"] {stroke:#000000;fill:#000000;}
*[fill="none"] {fill: none;}
*[stroke="none"] {stroke: none;}
path, polyline, polygon, line {stroke-linecap:round;}
g[c_partid="part_pad"][layerid="1"] ellipse:not([c_etype="pad_outer"]) {fill:#000000;}
g[c_partid="part_pad"][layerid="1"] polygon:not([c_etype="pad_outer"]) {fill:#000000;}
g[c_partid="part_pad"][layerid="1"] polyline:not([c_etype="pad_outer"]) {stroke:#000000;}
g[c_partid="part_pad"][layerid="2"] ellipse:not([c_etype="pad_outer"]) {fill:#000000;}
g[c_partid="part_pad"][layerid="2"] polygon:not([c_etype="pad_outer"]) {fill:#000000;}
g[c_partid="part_pad"][layerid="2"] polyline:not([c_etype="pad_outer"]) {stroke:#000000;}
g[c_partid="part_pad"][layerid="11"] ellipse:not([c_etype="pad_outer"]) {fill:#000000;}
g[c_partid="part_pad"][layerid="11"] polygon:not([c_etype="pad_outer"]) {fill:#000000;}
g[c_partid="part_pad"][layerid="11"] polyline:not([c_etype="pad_outer"]) {stroke:#000000;}
g[c_partid="part_pad"][layerid="11"] circle {fill:#FFFFFF;}
g[c_partid="part_pad"][layerid="11"] > polyline:nth-of-type(2) {stroke:#FFFFFF;}
g[c_partid="part_pad"][layerid="11"][c_shape="ELLIPSE"]  polyline:nth-last-of-type(1) {stroke:#FFFFFF;}
g[c_partid="part_pad"][layerid="11"][c_shape="RECT"]  polyline:nth-last-of-type(1) {stroke:#FFFFFF;}
g[c_partid="part_pad"][layerid="11"][c_shape="POLYGON"]  polyline:nth-last-of-type(1) {stroke:#FFFFFF;}
g[c_partid="part_via"] > * + circle, #gCurParts g[c_partid="part_via"] > * + circle {fill:#FFFFFF;}
g[c_partid="part_pad"] > polygon[c_etype="pad_outer"], #gCurParts g[c_partid="part_pad"] > polygon[c_etype="pad_outer"] {stroke-linejoin: round;stroke-miterlimit: 100;}
g[c_partid="part_hole"] > circle {fill: #FFFFFF;}path, polyline, polygon {stroke-linejoin:round;}
rect, circle, ellipse, polyline, line, polygon, path {shape-rendering:crispEdges;}
</style>
<rect x="4010.5" y="3064.5" width="357" height="232.5" fill="#FFFFFF" stroke="none"/><polyline points="4323.3651 3179.5 4320.2961 3179.5" stroke-width="1"  stroke-linecap="round" fill="none" layerid="1" net="U1_2" id="gge2369" locked="0" /><polyline points="4320.2961 3179.5 4316.9181 3182.878 4178.4461 3182.878 4175.5681 3180" stroke-width="1"  stroke-linecap="round" fill="none" layerid="1" net="U1_2" id="gge2372" locked="0" /><polyline points="4178.2441 3180 4175.5681 3180" stroke-width="1"  stroke-linecap="round" fill="none" layerid="1" net="U1_2" id="gge2375" locked="0" /><polyline points="4162.5001 3182.059 4162.5001 3184.144" stroke-width="1"  stroke-linecap="round" fill="none" layerid="1" net="U1_2" id="gge2378" locked="0" /><polyline points="4162.5001 3184.144 4162.5991 3184.243 4171.3251 3184.243 4175.5681 3180" stroke-width="1"  stroke-linecap="round" fill="none" layerid="1" net="U1_2" id="gge2381" locked="0" /><polyline points="4183.7561 3180 4181.0801 3180" stroke-width="1"  stroke-linecap="round" fill="none" layerid="1" net="U1_7" id="gge2384" locked="0" /><polyline points="4162.5001 3174.856 4162.5051 3174.851 4178.6071 3174.851 4181.0801 3177.324 4181.0801 3180" stroke-width="1"  stroke-linecap="round" fill="none" layerid="1" net="U1_7" id="gge2387" locked="0" /><polyline points="4162.5001 3175.254 4162.5001 3174.856" stroke-width="1"  stroke-linecap="round" fill="none" layerid="1" net="U1_7" id="gge2390" locked="0" /><polyline points="4162.5001 3176.941 4162.5001 3175.254" stroke-width="1"  stroke-linecap="round" fill="none" layerid="1" net="U1_7" id="gge2393" locked="0" /><polyline points="4160.5321 3176.941 4160.5321 3174.856" stroke-width="1"  stroke-linecap="round" fill="none" layerid="1" net="U1_7" id="gge2396" locked="0" /><polyline points="4160.5321 3174.856 4162.5001 3174.856" stroke-width="1"  stroke-linecap="round" fill="none" layerid="1" net="U1_7" id="gge2399" locked="0" /><polyline points="4183.7561 3180 4186.4321 3180" stroke-width="1"  stroke-linecap="round" fill="none" layerid="1" net="U1_7" id="gge2402" locked="0" /><polyline points="4257.0341 3173 4193.4321 3173 4186.4321 3180" stroke-width="1"  stroke-linecap="round" fill="none" layerid="1" net="U1_7" id="gge2405" locked="0" /><polyline points="4331.6351 3179.5 4328.5661 3179.5" stroke-width="1"  stroke-linecap="round" fill="none" layerid="1" net="LED1_1" id="gge2408" locked="0" /><polyline points="4262.9661 3173 4323.6001 3173 4328.5661 3177.966 4328.5661 3179.5" stroke-width="1"  stroke-linecap="round" fill="none" layerid="1" net="LED1_1" id="gge2411" locked="0" /><polyline points="4132 3177.5 4134 3179.5 4160.138 3179.5" stroke-width="1"  stroke-linecap="round" fill="none" layerid="1" net="U1_8" id="gge2417" locked="0" /><polyline points="4160.5322 3182.0591 4160.4731 3182 4132 3182" stroke-width="1"  stroke-linecap="round" fill="none" layerid="1" net="U1_1" id="gge2357" locked="0" /><polyline points="4039.736 3096.142 4039.736 3263.858" stroke-width="1.181"  stroke-linecap="round" fill="none" layerid="1" net="" id="gge21" locked="0" /><polyline points="4037.374 3096.142 4037.374 3263.858" stroke-width="1.181"  stroke-linecap="round" fill="none" layerid="1" net="" id="gge24" locked="0" /><polyline points="4035.012 3096.142 4035.012 3263.858" stroke-width="1.181"  stroke-linecap="round" fill="none" layerid="1" net="" id="gge27" locked="0" /><polyline points="4032.65 3096.142 4032.65 3263.858" stroke-width="1.181"  stroke-linecap="round" fill="none" layerid="1" net="" id="gge30" locked="0" /><polyline points="4030.288 3096.142 4030.288 3263.858" stroke-width="1.181"  stroke-linecap="round" fill="none" layerid="1" net="" id="gge33" locked="0" /><polyline points="4118.083 3094.961 4040.917 3094.961" stroke-width="1.181"  stroke-linecap="round" fill="none" layerid="1" net="" id="gge36" locked="0" /><polyline points="4118.083 3092.599 4040.917 3092.599" stroke-width="1.181"  stroke-linecap="round" fill="none" layerid="1" net="" id="gge39" locked="0" /><polyline points="4118.083 3090.236 4040.917 3090.236" stroke-width="1.181"  stroke-linecap="round" fill="none" layerid="1" net="" id="gge42" locked="0" /><polyline points="4118.083 3087.874 4040.917 3087.874" stroke-width="1.181"  stroke-linecap="round" fill="none" layerid="1" net="" id="gge45" locked="0" /><polyline points="4118.083 3085.512 4040.917 3085.512" stroke-width="1.181"  stroke-linecap="round" fill="none" layerid="1" net="" id="gge48" locked="0" /><polyline points="4118.083 3265.039 4040.917 3265.039" stroke-width="1.181"  stroke-linecap="round" fill="none" layerid="1" net="" id="gge51" locked="0" /><polyline points="4118.083 3267.401 4040.917 3267.401" stroke-width="1.181"  stroke-linecap="round" fill="none" layerid="1" net="" id="gge54" locked="0" /><polyline points="4118.083 3269.764 4040.917 3269.764" stroke-width="1.181"  stroke-linecap="round" fill="none" layerid="1" net="" id="gge57" locked="0" /><polyline points="4118.083 3272.126 4040.917 3272.126" stroke-width="1.181"  stroke-linecap="round" fill="none" layerid="1" net="" id="gge60" locked="0" /><polyline points="4118.083 3274.488 4040.917 3274.488" stroke-width="1.181"  stroke-linecap="round" fill="none" layerid="1" net="" id="gge63" locked="0" /><polyline points="4119.264 3096.142 4119.264 3180 4121.626 3182.362 4121.626 3263.858" stroke-width="1.181"  stroke-linecap="round" fill="none" layerid="1" net="" id="gge126" locked="0" /><polyline points="4123.988 3096.142 4123.988 3178.425 4126.35 3180.787 4126.35 3263.858" stroke-width="1.181"  stroke-linecap="round" fill="none" layerid="1" net="" id="gge129" locked="0" /><polyline points="4121.626 3096.142 4121.626 3179.213 4123.988 3181.575 4123.988 3263.858" stroke-width="1.181"  stroke-linecap="round" fill="none" layerid="1" net="" id="gge132" locked="0" /><polyline points="4126.35 3096.142 4126.35 3177.638 4128.713 3180 4128.713 3263.858" stroke-width="1.181"  stroke-linecap="round" fill="none" layerid="1" net="" id="gge135" locked="0" /><polyline points="4119.264 3263.858 4119.264 3183.15 4118.614 3182.5 4117 3182.5" stroke-width="1.181"  stroke-linecap="round" fill="none" layerid="1" net="" id="gge138" locked="0" /><polyline points="4132.5 3177.5 4132 3177.5 4129.362 3177.5 4128.713 3176.85 4128.713 3096.142" stroke-width="1.181"  stroke-linecap="round" fill="none" layerid="1" net="" id="gge141" locked="0" /><g c_partid="part_pad" c_etype="pinpart" c_origin="4132,3177.5" layerid="1" number="P$1" net="U1_8" plated ="Y"  id="gge144" locked="0" c_rotation="0" c_width="2.953" c_height="1.181" title="U1_8" c_shape="RECT" pasteexpansion="0" solderexpansion="0.2"><polygon  c_etype="pad_shell" points="4130.5235 3176.9095 4133.4765 3176.9095 4133.4765 3178.0905 4130.5235 3178.0905" layerid="1" stroke-width="0" /><circle c_etype="pad_hole" cx="4132" cy="3177.5" r="0" layerid="1" stroke-width="0"/></g><g c_partid="part_pad" c_etype="pinpart" c_origin="4183.756,3180" layerid="1" number="2" net="U1_7" plated ="Y"  id="gge240" locked="0" c_rotation="0" c_width="3.1496" c_height="3.5433" title="U1_7" c_shape="RECT" pasteexpansion="0.0000" solderexpansion="0.2000"><polygon  c_etype="pad_shell" points="4182.1811 3178.2283 4185.3307 3178.2283 4185.3307 3181.7717 4182.1811 3181.7717" layerid="1" stroke-width="0" /><circle c_etype="pad_hole" cx="4183.7555" cy="3180" r="0" layerid="1" stroke-width="0"/></g><g c_partid="part_pad" c_etype="pinpart" c_origin="4178.244,3180" layerid="1" number="1" net="U1_2" plated ="Y"  id="gge255" locked="0" c_rotation="0" c_width="3.1496" c_height="3.5433" title="U1_2" c_shape="RECT" pasteexpansion="0.0000" solderexpansion="0.2000"><polygon  c_etype="pad_shell" points="4176.6693 3178.2283 4179.8189 3178.2283 4179.8189 3181.7717 4176.6693 3181.7717" layerid="1" stroke-width="0" /><circle c_etype="pad_hole" cx="4178.2445" cy="3180" r="0" layerid="1" stroke-width="0"/></g><g c_partid="part_pad" c_etype="pinpart" c_origin="4323.365,3179.5" layerid="1" number="2" net="U1_2" plated ="Y"  id="gge327" locked="0" c_rotation="180" c_width="3.937" c_height="5.51" title="U1_2" c_shape="RECT" pasteexpansion="0" solderexpansion="0.2"><polygon  c_etype="pad_shell" points="4321.3965 3182.255 4325.3335 3182.255 4325.3335 3176.745 4321.3965 3176.745" layerid="1" stroke-width="0" /><circle c_etype="pad_hole" cx="4323.365" cy="3179.5" r="0" layerid="1" stroke-width="0"/></g><g c_partid="part_pad" c_etype="pinpart" c_origin="4331.635,3179.5" layerid="1" number="1" net="LED1_1" plated ="Y"  id="gge342" locked="0" c_rotation="180" c_width="3.937" c_height="5.51" title="LED1_1" c_shape="RECT" pasteexpansion="0" solderexpansion="0.2"><polygon  c_etype="pad_shell" points="4333.6035 3182.255 4329.6665 3182.255 4329.6665 3176.745 4333.6035 3176.745" layerid="1" stroke-width="0" /><circle c_etype="pad_hole" cx="4331.635" cy="3179.5" r="0" layerid="1" stroke-width="0"/></g><g c_partid="part_pad" c_etype="pinpart" c_origin="4257.034,3173" layerid="1" number="2" net="U1_7" plated ="Y"  id="gge396" locked="0" c_rotation="180" c_width="3.1751" c_height="3.4016" title="U1_7" c_shape="RECT" pasteexpansion="-393.7008" solderexpansion="0.2000"><polygon  c_etype="pad_shell" points="4258.622 3171.2992 4258.622 3174.7008 4255.4469 3174.7008 4255.4469 3171.2992" layerid="1" stroke-width="0" /><circle c_etype="pad_hole" cx="4257.0345" cy="3173" r="0" layerid="1" stroke-width="0"/></g><g c_partid="part_pad" c_etype="pinpart" c_origin="4262.966,3173" layerid="1" number="1" net="LED1_1" plated ="Y"  id="gge408" locked="0" c_rotation="180" c_width="3.1751" c_height="3.4016" title="LED1_1" c_shape="RECT" pasteexpansion="-393.7008" solderexpansion="0.2000"><polygon  c_etype="pad_shell" points="4261.378 3171.2992 4261.378 3174.7008 4264.5531 3174.7008 4264.5531 3171.2992" layerid="1" stroke-width="0" /><circle c_etype="pad_hole" cx="4262.9655" cy="3173" r="0" layerid="1" stroke-width="0"/></g><g c_partid="part_pad" c_etype="pinpart" c_origin="4160.532,3182.059" layerid="1" number="1" net="U1_1" plated ="Y"  id="gge501" locked="0" c_rotation="90" c_width="1.9685" c_height="1.1024" title="U1_1" c_shape="RECT" pasteexpansion="0" solderexpansion="0.2"><polygon  c_etype="pad_shell" points="4159.9809 3183.0435 4159.9809 3181.075 4161.0833 3181.075 4161.0833 3183.0435" layerid="1" stroke-width="0" /><circle c_etype="pad_hole" cx="4160.5316" cy="3182.059" r="0" layerid="1" stroke-width="0"/></g><g c_partid="part_pad" c_etype="pinpart" c_origin="4162.5,3182.059" layerid="1" number="2" net="U1_2" plated ="Y"  id="gge516" locked="0" c_rotation="90" c_width="1.9685" c_height="1.1024" title="U1_2" c_shape="RECT" pasteexpansion="0" solderexpansion="0.2"><polygon  c_etype="pad_shell" points="4161.9489 3183.0435 4161.9489 3181.075 4163.0513 3181.075 4163.0513 3183.0435" layerid="1" stroke-width="0" /><circle c_etype="pad_hole" cx="4162.4996" cy="3182.059" r="0" layerid="1" stroke-width="0"/></g><g c_partid="part_pad" c_etype="pinpart" c_origin="4164.468,3182.059" layerid="1" number="3" net="U1_3" plated ="Y"  id="gge531" locked="0" c_rotation="90" c_width="1.9685" c_height="1.1024" title="U1_3" c_shape="RECT" pasteexpansion="0" solderexpansion="0.2"><polygon  c_etype="pad_shell" points="4163.9169 3183.0435 4163.9169 3181.075 4165.0193 3181.075 4165.0193 3183.0435" layerid="1" stroke-width="0" /><circle c_etype="pad_hole" cx="4164.4686" cy="3182.059" r="0" layerid="1" stroke-width="0"/></g><g c_partid="part_pad" c_etype="pinpart" c_origin="4164.862,3179.5" layerid="1" number="4" net="U1_4" plated ="Y"  id="gge546" locked="0" c_rotation="180" c_width="1.7717" c_height="1.1811" title="U1_4" c_shape="RECT" pasteexpansion="0" solderexpansion="0.2"><polygon  c_etype="pad_shell" points="4165.7479 3180.0908 4163.9763 3180.0908 4163.9763 3178.9097 4165.7479 3178.9097" layerid="1" stroke-width="0" /><circle c_etype="pad_hole" cx="4164.8624" cy="3179.5" r="0" layerid="1" stroke-width="0"/></g><g c_partid="part_pad" c_etype="pinpart" c_origin="4164.469,3176.941" layerid="1" number="5" net="U1_5" plated ="Y"  id="gge561" locked="0" c_rotation="90" c_width="1.9685" c_height="1.1024" title="U1_5" c_shape="RECT" pasteexpansion="0" solderexpansion="0.2"><polygon  c_etype="pad_shell" points="4163.9179 3177.9255 4163.9179 3175.957 4165.0203 3175.957 4165.0203 3177.9255" layerid="1" stroke-width="0" /><circle c_etype="pad_hole" cx="4164.4686" cy="3176.941" r="0" layerid="1" stroke-width="0"/></g><g c_partid="part_pad" c_etype="pinpart" c_origin="4162.5,3176.941" layerid="1" number="6" net="U1_7" plated ="Y"  id="gge576" locked="0" c_rotation="90" c_width="1.9685" c_height="1.1024" title="U1_7" c_shape="RECT" pasteexpansion="0" solderexpansion="0.2"><polygon  c_etype="pad_shell" points="4161.9489 3177.9255 4161.9489 3175.957 4163.0513 3175.957 4163.0513 3177.9255" layerid="1" stroke-width="0" /><circle c_etype="pad_hole" cx="4162.5006" cy="3176.941" r="0" layerid="1" stroke-width="0"/></g><g c_partid="part_pad" c_etype="pinpart" c_origin="4160.532,3176.941" layerid="1" number="7" net="U1_7" plated ="Y"  id="gge591" locked="0" c_rotation="90" c_width="1.9685" c_height="1.1024" title="U1_7" c_shape="RECT" pasteexpansion="0" solderexpansion="0.2"><polygon  c_etype="pad_shell" points="4159.9809 3177.9255 4159.9809 3175.957 4161.0833 3175.957 4161.0833 3177.9255" layerid="1" stroke-width="0" /><circle c_etype="pad_hole" cx="4160.5316" cy="3176.941" r="0" layerid="1" stroke-width="0"/></g><g c_partid="part_pad" c_etype="pinpart" c_origin="4160.138,3179.5" layerid="1" number="8" net="U1_8" plated ="Y"  id="gge606" locked="0" c_rotation="180" c_width="1.7717" c_height="1.1811" title="U1_8" c_shape="RECT" pasteexpansion="0" solderexpansion="0.2"><polygon  c_etype="pad_shell" points="4161.0239 3180.0908 4159.2523 3180.0908 4159.2523 3178.9097 4161.0239 3178.9097" layerid="1" stroke-width="0" /><circle c_etype="pad_hole" cx="4160.1378" cy="3179.5" r="0" layerid="1" stroke-width="0"/></g><g c_partid="part_pad" c_etype="pinpart" c_origin="4162.5,3179.5" layerid="1" number="9" net="U1_9" plated ="Y"  id="gge621" locked="0" c_rotation="180" c_width="1.1811" c_height="1.1811" title="U1_9" c_shape="RECT" pasteexpansion="0" solderexpansion="0.2"><polygon  c_etype="pad_shell" points="4163.0902 3180.0906 4161.909 3180.0906 4161.909 3178.9095 4163.0902 3178.9095" layerid="1" stroke-width="0" /><circle c_etype="pad_hole" cx="4162.5006" cy="3179.5" r="0" layerid="1" stroke-width="0"/></g><g c_partid="part_pcbtext" c_etype="pinpart" c_origin="4145,3112" c_rotation="0" c_mirror="0" id="gge1203" locked="0" layerid="1" c_shapetype="group" ><path c_fontsize="19.2913" c_fontfamily="" c_text="MATTHEW SOH" d="M 4145 3092.53 L 4145 3110.95 M 4145 3092.53 L 4152.02 3110.95 M 4159.03 3092.53 L 4152.02 3110.95 M 4159.03 3092.53 L 4159.03 3110.95 M 4171.83 3092.53 L 4164.82 3110.95 M 4171.83 3092.53 L 4178.85 3110.95 M 4167.45 3104.81 L 4176.22 3104.81 M 4190.77 3092.53 L 4190.77 3110.95 M 4184.63 3092.53 L 4196.91 3092.53 M 4208.84 3092.53 L 4208.84 3110.95 M 4202.7 3092.53 L 4214.97 3092.53 M 4220.76 3092.53 L 4220.76 3110.95 M 4233.04 3092.53 L 4233.04 3110.95 M 4220.76 3101.3 L 4233.04 3101.3 M 4238.83 3092.53 L 4238.83 3110.95 M 4238.83 3092.53 L 4250.23 3092.53 M 4238.83 3101.3 L 4245.84 3101.3 M 4238.83 3110.95 L 4250.23 3110.95 M 4256.01 3092.53 L 4260.4 3110.95 M 4264.78 3092.53 L 4260.4 3110.95 M 4264.78 3092.53 L 4269.17 3110.95 M 4273.55 3092.53 L 4269.17 3110.95 M 4305.12 3095.16 L 4303.36 3093.41 L 4300.73 3092.53 L 4297.23 3092.53 L 4294.6 3093.41 L 4292.84 3095.16 L 4292.84 3096.92 L 4293.72 3098.67 L 4294.6 3099.55 L 4296.35 3100.43 L 4301.61 3102.18 L 4303.36 3103.06 L 4304.24 3103.93 L 4305.12 3105.69 L 4305.12 3108.32 L 4303.36 3110.07 L 4300.73 3110.95 L 4297.23 3110.95 L 4294.6 3110.07 L 4292.84 3108.32 M 4316.17 3092.53 L 4314.41 3093.41 L 4312.66 3095.16 L 4311.78 3096.92 L 4310.91 3099.55 L 4310.91 3103.93 L 4311.78 3106.56 L 4312.66 3108.32 L 4314.41 3110.07 L 4316.17 3110.95 L 4319.67 3110.95 L 4321.43 3110.07 L 4323.18 3108.32 L 4324.06 3106.56 L 4324.94 3103.93 L 4324.94 3099.55 L 4324.06 3096.92 L 4323.18 3095.16 L 4321.43 3093.41 L 4319.67 3092.53 L 4316.17 3092.53 M 4330.72 3092.53 L 4330.72 3110.95 M 4343 3092.53 L 4343 3110.95 M 4330.72 3101.3 L 4343 3101.3" fill="none"  stroke-width="0.8"  /></g><path d="M 4119.264 3263.858 A 1.181 1.181 0 0 1 4118.083 3265.039" locked="0"  fill="none" stroke-width="1.181" c_helper_type="arc2" net="" layerid="1" id="gge66" /><path d="M 4121.626 3263.858 A 3.543 3.543 0 0 1 4118.083 3267.401" locked="0"  fill="none" stroke-width="1.181" c_helper_type="arc2" net="" layerid="1" id="gge69" /><path d="M 4123.988 3263.858 A 5.905 5.905 0 0 1 4118.083 3269.764" locked="0"  fill="none" stroke-width="1.181" c_helper_type="arc2" net="" layerid="1" id="gge72" /><path d="M 4126.35 3263.858 A 8.268 8.268 0 0 1 4118.083 3272.126" locked="0"  fill="none" stroke-width="1.181" c_helper_type="arc2" net="" layerid="1" id="gge75" /><path d="M 4128.713 3263.858 A 10.63 10.63 0 0 1 4118.083 3274.488" locked="0"  fill="none" stroke-width="1.181" c_helper_type="arc2" net="" layerid="1" id="gge78" /><path d="M 4119.264 3096.142 A 1.181 1.181 0 0 0 4118.083 3094.961" locked="0"  fill="none" stroke-width="1.181" c_helper_type="arc2" net="" layerid="1" id="gge81" /><path d="M 4121.626 3096.142 A 3.543 3.543 0 0 0 4118.083 3092.599" locked="0"  fill="none" stroke-width="1.181" c_helper_type="arc2" net="" layerid="1" id="gge84" /><path d="M 4123.988 3096.142 A 5.905 5.905 0 0 0 4118.083 3090.236" locked="0"  fill="none" stroke-width="1.181" c_helper_type="arc2" net="" layerid="1" id="gge87" /><path d="M 4126.35 3096.142 A 8.268 8.268 0 0 0 4118.083 3087.874" locked="0"  fill="none" stroke-width="1.181" c_helper_type="arc2" net="" layerid="1" id="gge90" /><path d="M 4128.713 3096.142 A 10.63 10.63 0 0 0 4118.083 3085.512" locked="0"  fill="none" stroke-width="1.181" c_helper_type="arc2" net="" layerid="1" id="gge93" /><path d="M 4039.736 3096.142 A 1.181 1.181 0 0 1 4040.917 3094.961" locked="0"  fill="none" stroke-width="1.181" c_helper_type="arc2" net="" layerid="1" id="gge96" /><path d="M 4037.374 3096.142 A 3.543 3.543 0 0 1 4040.917 3092.599" locked="0"  fill="none" stroke-width="1.181" c_helper_type="arc2" net="" layerid="1" id="gge99" /><path d="M 4035.012 3096.142 A 5.905 5.905 0 0 1 4040.917 3090.236" locked="0"  fill="none" stroke-width="1.181" c_helper_type="arc2" net="" layerid="1" id="gge102" /><path d="M 4032.65 3096.142 A 8.268 8.268 0 0 1 4040.917 3087.874" locked="0"  fill="none" stroke-width="1.181" c_helper_type="arc2" net="" layerid="1" id="gge105" /><path d="M 4030.287 3096.142 A 10.63 10.63 0 0 1 4040.917 3085.512" locked="0"  fill="none" stroke-width="1.181" c_helper_type="arc2" net="" layerid="1" id="gge108" /><path d="M 4039.736 3263.858 A 1.181 1.181 0 0 0 4040.917 3265.039" locked="0"  fill="none" stroke-width="1.181" c_helper_type="arc2" net="" layerid="1" id="gge111" /><path d="M 4037.374 3263.858 A 3.543 3.543 0 0 0 4040.917 3267.401" locked="0"  fill="none" stroke-width="1.181" c_helper_type="arc2" net="" layerid="1" id="gge114" /><path d="M 4035.012 3263.858 A 5.905 5.905 0 0 0 4040.917 3269.764" locked="0"  fill="none" stroke-width="1.181" c_helper_type="arc2" net="" layerid="1" id="gge117" /><path d="M 4032.65 3263.858 A 8.268 8.268 0 0 0 4040.917 3272.126" locked="0"  fill="none" stroke-width="1.181" c_helper_type="arc2" net="" layerid="1" id="gge120" /><path d="M 4030.287 3263.858 A 10.63 10.63 0 0 0 4040.917 3274.488" locked="0"  fill="none" stroke-width="1.181" c_helper_type="arc2" net="" layerid="1" id="gge123" /><g c_partid="part_pad" c_etype="pinpart" c_origin="4117,3182.5" layerid="11" number="P$2" net="U1_1" plated ="Y"  id="gge159" locked="0" c_rotation="270" c_width="3.181" c_height="3.181" title="U1_1" c_shape="ELLIPSE" pasteexpansion="0" solderexpansion="0.2"><ellipse c_etype="pad_shell" cx="4117" cy="3182.5" rx="1.5905" ry="1.5905" layerid="11" stroke-width="0"/><polyline c_etype="pad_hole" points="4117 3182.5005 4117 3182.4995" layerid="11" stroke-width="1.182"></polyline></g><g c_partid="part_via" c_etype="pinpart" c_shapetype="group" net="U1_1" c_origin="4132,3182" layerid="11" id="gge2366" locked="0" solderexpansion=""><circle cx="4132" cy="3182" r="1.2" stroke-width="0" c_etype="pad_shell"/><circle cx="4132" cy="3182" r="0.6"  stroke-width="0" c_etype="pad_hole"/></g><polyline points="4186.4725 3178.4261 4186.4725 3181.5758" stroke-width="1"  stroke-linecap="round" fill="none" layerid="3" net="" id="gge201" locked="0" /><polyline points="4182.1034 3177.2062 4185.2529 3177.2062" stroke-width="1"  stroke-linecap="round" fill="none" layerid="3" net="" id="gge204" locked="0" /><polyline points="4182.1034 3182.7954 4185.2529 3182.7954" stroke-width="1"  stroke-linecap="round" fill="none" layerid="3" net="" id="gge207" locked="0" /><polyline points="4179.8361 3177.1833 4176.6865 3177.1833" stroke-width="1"  stroke-linecap="round" fill="none" layerid="3" net="" id="gge210" locked="0" /><polyline points="4175.4667 3178.4031 4175.4667 3181.5526" stroke-width="1"  stroke-linecap="round" fill="none" layerid="3" net="" id="gge213" locked="0" /><polyline points="4179.8361 3182.7723 4176.6865 3182.7723" stroke-width="1"  stroke-linecap="round" fill="none" layerid="3" net="" id="gge216" locked="0" /><polyline points="4328.2874 3177.5315 4326.7126 3179.1063 4326.3189 3179.5 4326.7126 3179.8947 4328.2874 3181.4695" stroke-width="1"  stroke-linecap="round" fill="none" layerid="3" net="" id="gge300" locked="0" /><polyline points="4328.2874 3177.5315 4328.2874 3181.4695" stroke-width="1"  stroke-linecap="round" fill="none" layerid="3" net="" id="gge303" locked="0" /><polyline points="4329.245 3183.505 4335.345 3183.505 4335.345 3175.505 4329.245 3175.505" stroke-width="1"  stroke-linecap="round" fill="none" layerid="3" net="" id="gge306" locked="0" /><polyline points="4326.145 3183.605 4320.345 3183.605 4318.745 3182.005 4318.745 3177.005 4320.245 3175.505 4326.245 3175.505" stroke-width="1"  stroke-linecap="round" fill="none" layerid="3" net="" id="gge309" locked="0" /><polyline points="4258.322 3170.3992 4254.5469 3170.3992 4254.5469 3175.6008 4258.322 3175.6008" stroke-width="0.6"  stroke-linecap="round" fill="none" layerid="3" net="" id="gge384" locked="0" /><polyline points="4261.678 3170.3992 4265.4531 3170.3992 4265.4531 3175.6008 4261.678 3175.6008" stroke-width="0.6"  stroke-linecap="round" fill="none" layerid="3" net="" id="gge387" locked="0" /><polyline points="4165.8785 3175.5629 4166.4371 3175.5629" stroke-width="1"  stroke-linecap="round" fill="none" layerid="3" net="" id="gge474" locked="0" /><polyline points="4158.563 3178.2201 4158.563 3175.5629 4159.1219 3175.5629" stroke-width="1"  stroke-linecap="round" fill="none" layerid="3" net="" id="gge477" locked="0" /><polyline points="4159.1219 3183.4369 4158.563 3183.4369 4158.563 3180.7792" stroke-width="1"  stroke-linecap="round" fill="none" layerid="3" net="" id="gge480" locked="0" /><polyline points="4166.4371 3183.4369 4165.8785 3183.4369" stroke-width="1"  stroke-linecap="round" fill="none" layerid="3" net="" id="gge483" locked="0" /><polyline points="4166.4371 3180.7792 4166.4371 3183.4369" stroke-width="1"  stroke-linecap="round" fill="none" layerid="3" net="" id="gge486" locked="0" /><polyline points="4166.4371 3175.5629 4166.4371 3178.2201" stroke-width="1"  stroke-linecap="round" fill="none" layerid="3" net="" id="gge489" locked="0" /><g c_partid="part_pcbtext" c_etype="" c_origin="4141.5,3180" c_rotation="270" c_mirror="0" id="gge9" locked="0" layerid="3" c_shapetype="group" display="none"><path c_fontsize="4.5" c_fontfamily="" c_text="25X48MM_NFC_ANTENNA" d="M 4145.02 3180.2 L 4145.22 3180.2 L 4145.63 3180.41 L 4145.84 3180.61 L 4146.04 3181.02 L 4146.04 3181.84 L 4145.84 3182.25 L 4145.63 3182.45 L 4145.22 3182.66 L 4144.81 3182.66 L 4144.4 3182.45 L 4143.79 3182.05 L 4141.75 3180 L 4141.75 3182.86 M 4146.04 3186.67 L 4146.04 3184.62 L 4144.2 3184.42 L 4144.4 3184.62 L 4144.61 3185.24 L 4144.61 3185.85 L 4144.4 3186.46 L 4144 3186.87 L 4143.38 3187.08 L 4142.97 3187.08 L 4142.36 3186.87 L 4141.95 3186.46 L 4141.75 3185.85 L 4141.75 3185.24 L 4141.95 3184.62 L 4142.15 3184.42 L 4142.56 3184.21 M 4146.04 3188.43 L 4141.75 3191.29 M 4146.04 3191.29 L 4141.75 3188.43 M 4146.04 3194.69 L 4143.18 3192.64 L 4143.18 3195.71 M 4146.04 3194.69 L 4141.75 3194.69 M 4146.04 3198.08 L 4145.84 3197.47 L 4145.43 3197.26 L 4145.02 3197.26 L 4144.61 3197.47 L 4144.4 3197.88 L 4144.2 3198.7 L 4144 3199.31 L 4143.59 3199.72 L 4143.18 3199.92 L 4142.56 3199.92 L 4142.15 3199.72 L 4141.95 3199.51 L 4141.75 3198.9 L 4141.75 3198.08 L 4141.95 3197.47 L 4142.15 3197.26 L 4142.56 3197.06 L 4143.18 3197.06 L 4143.59 3197.26 L 4144 3197.67 L 4144.2 3198.29 L 4144.4 3199.1 L 4144.61 3199.51 L 4145.02 3199.72 L 4145.43 3199.72 L 4145.84 3199.51 L 4146.04 3198.9 L 4146.04 3198.08 M 4146.04 3201.27 L 4141.75 3201.27 M 4146.04 3201.27 L 4141.75 3202.91 M 4146.04 3204.55 L 4141.75 3202.91 M 4146.04 3204.55 L 4141.75 3204.55 M 4146.04 3205.9 L 4141.75 3205.9 M 4146.04 3205.9 L 4141.75 3207.53 M 4146.04 3209.17 L 4141.75 3207.53 M 4146.04 3209.17 L 4141.75 3209.17 M 4140.31 3210.52 L 4140.31 3214.2 M 4146.04 3215.55 L 4141.75 3215.55 M 4146.04 3215.55 L 4141.75 3218.41 M 4146.04 3218.41 L 4141.75 3218.41 M 4146.04 3219.76 L 4141.75 3219.76 M 4146.04 3219.76 L 4146.04 3222.42 M 4144 3219.76 L 4144 3221.4 M 4145.02 3226.84 L 4145.43 3226.64 L 4145.84 3226.23 L 4146.04 3225.82 L 4146.04 3225 L 4145.84 3224.59 L 4145.43 3224.18 L 4145.02 3223.98 L 4144.4 3223.77 L 4143.38 3223.77 L 4142.77 3223.98 L 4142.36 3224.18 L 4141.95 3224.59 L 4141.75 3225 L 4141.75 3225.82 L 4141.95 3226.23 L 4142.36 3226.64 L 4142.77 3226.84 M 4140.31 3228.19 L 4140.31 3231.87 M 4146.04 3234.86 L 4141.75 3233.22 M 4146.04 3234.86 L 4141.75 3236.5 M 4143.18 3233.84 L 4143.18 3235.88 M 4146.04 3237.85 L 4141.75 3237.85 M 4146.04 3237.85 L 4141.75 3240.71 M 4146.04 3240.71 L 4141.75 3240.71 M 4146.04 3243.49 L 4141.75 3243.49 M 4146.04 3242.06 L 4146.04 3244.92 M 4146.04 3246.27 L 4141.75 3246.27 M 4146.04 3246.27 L 4146.04 3248.93 M 4144 3246.27 L 4144 3247.91 M 4141.75 3246.27 L 4141.75 3248.93 M 4146.04 3250.28 L 4141.75 3250.28 M 4146.04 3250.28 L 4141.75 3253.15 M 4146.04 3253.15 L 4141.75 3253.15 M 4146.04 3254.5 L 4141.75 3254.5 M 4146.04 3254.5 L 4141.75 3257.36 M 4146.04 3257.36 L 4141.75 3257.36 M 4146.04 3260.35 L 4141.75 3258.71 M 4146.04 3260.35 L 4141.75 3261.98 M 4143.18 3259.32 L 4143.18 3261.37" fill="none"  stroke-width="0.6" c_note="note_name" /></g><g c_partid="part_pcbtext" c_etype="" c_origin="4134.5,3180" c_rotation="270" c_mirror="0" id="gge15" locked="0" layerid="3" c_shapetype="group" display="none"><path c_fontsize="4.5" c_fontfamily="" c_text="1" d="M 4138.22 3180 L 4138.43 3180.41 L 4139.04 3181.02 L 4134.75 3181.02" fill="none"  stroke-width="0.6" c_note="note_pre" /></g><g c_partid="part_pcbtext" c_etype="" c_origin="4180,3169" c_rotation="0" c_mirror="0" id="gge180" locked="0" layerid="3" c_shapetype="group" display="none"><path c_fontsize="4.5" c_fontfamily="" c_text="220nF" d="M 4180.2 3165.48 L 4180.2 3165.28 L 4180.41 3164.87 L 4180.61 3164.66 L 4181.02 3164.46 L 4181.84 3164.46 L 4182.25 3164.66 L 4182.45 3164.87 L 4182.66 3165.28 L 4182.66 3165.69 L 4182.45 3166.1 L 4182.05 3166.71 L 4180 3168.75 L 4182.86 3168.75 M 4184.42 3165.48 L 4184.42 3165.28 L 4184.62 3164.87 L 4184.83 3164.66 L 4185.24 3164.46 L 4186.05 3164.46 L 4186.46 3164.66 L 4186.67 3164.87 L 4186.87 3165.28 L 4186.87 3165.69 L 4186.67 3166.1 L 4186.26 3166.71 L 4184.21 3168.75 L 4187.08 3168.75 M 4189.65 3164.46 L 4189.04 3164.66 L 4188.63 3165.28 L 4188.43 3166.3 L 4188.43 3166.91 L 4188.63 3167.94 L 4189.04 3168.55 L 4189.65 3168.75 L 4190.06 3168.75 L 4190.68 3168.55 L 4191.09 3167.94 L 4191.29 3166.91 L 4191.29 3166.3 L 4191.09 3165.28 L 4190.68 3164.66 L 4190.06 3164.46 L 4189.65 3164.46 M 4192.64 3165.89 L 4192.64 3168.75 M 4192.64 3166.71 L 4193.25 3166.1 L 4193.66 3165.89 L 4194.28 3165.89 L 4194.69 3166.1 L 4194.89 3166.71 L 4194.89 3168.75 M 4196.24 3164.46 L 4196.24 3168.75 M 4196.24 3164.46 L 4198.9 3164.46 M 4196.24 3166.5 L 4197.88 3166.5" fill="none"  stroke-width="0.6" c_note="note_name" /></g><g c_partid="part_pcbtext" c_etype="" c_origin="4180,3176" c_rotation="0" c_mirror="0" id="gge186" locked="0" layerid="3" c_shapetype="group" display="none"><path c_fontsize="4.5" c_fontfamily="" c_text="C1" d="M 4183.07 3172.48 L 4182.86 3172.07 L 4182.45 3171.66 L 4182.05 3171.46 L 4181.23 3171.46 L 4180.82 3171.66 L 4180.41 3172.07 L 4180.2 3172.48 L 4180 3173.1 L 4180 3174.12 L 4180.2 3174.73 L 4180.41 3175.14 L 4180.82 3175.55 L 4181.23 3175.75 L 4182.05 3175.75 L 4182.45 3175.55 L 4182.86 3175.14 L 4183.07 3174.73 M 4184.42 3172.28 L 4184.83 3172.07 L 4185.44 3171.46 L 4185.44 3175.75" fill="none"  stroke-width="0.6" c_note="note_pre" /></g><g c_partid="part_pcbtext" c_etype="" c_origin="4326.565,3167.505" c_rotation="0" c_mirror="0" id="gge276" locked="0" layerid="3" c_shapetype="group" display="none"><path c_fontsize="4.5" c_fontfamily="" c_text="0805G (Green)" d="M 4327.795 3162.965 L 4327.175 3163.165 L 4326.765 3163.785 L 4326.565 3164.805 L 4326.565 3165.415 L 4326.765 3166.445 L 4327.175 3167.055 L 4327.795 3167.255 L 4328.205 3167.255 L 4328.815 3167.055 L 4329.225 3166.445 L 4329.425 3165.415 L 4329.425 3164.805 L 4329.225 3163.785 L 4328.815 3163.165 L 4328.205 3162.965 L 4327.795 3162.965 M 4331.805 3162.965 L 4331.185 3163.165 L 4330.985 3163.575 L 4330.985 3163.985 L 4331.185 3164.395 L 4331.595 3164.605 L 4332.415 3164.805 L 4333.025 3165.005 L 4333.435 3165.415 L 4333.645 3165.825 L 4333.645 3166.445 L 4333.435 3166.855 L 4333.235 3167.055 L 4332.615 3167.255 L 4331.805 3167.255 L 4331.185 3167.055 L 4330.985 3166.855 L 4330.775 3166.445 L 4330.775 3165.825 L 4330.985 3165.415 L 4331.395 3165.005 L 4332.005 3164.805 L 4332.825 3164.605 L 4333.235 3164.395 L 4333.435 3163.985 L 4333.435 3163.575 L 4333.235 3163.165 L 4332.615 3162.965 L 4331.805 3162.965 M 4336.215 3162.965 L 4335.605 3163.165 L 4335.195 3163.785 L 4334.995 3164.805 L 4334.995 3165.415 L 4335.195 3166.445 L 4335.605 3167.055 L 4336.215 3167.255 L 4336.625 3167.255 L 4337.245 3167.055 L 4337.655 3166.445 L 4337.855 3165.415 L 4337.855 3164.805 L 4337.655 3163.785 L 4337.245 3163.165 L 4336.625 3162.965 L 4336.215 3162.965 M 4341.665 3162.965 L 4339.615 3162.965 L 4339.415 3164.805 L 4339.615 3164.605 L 4340.225 3164.395 L 4340.845 3164.395 L 4341.455 3164.605 L 4341.865 3165.005 L 4342.065 3165.625 L 4342.065 3166.035 L 4341.865 3166.645 L 4341.455 3167.055 L 4340.845 3167.255 L 4340.225 3167.255 L 4339.615 3167.055 L 4339.415 3166.855 L 4339.205 3166.445 M 4346.485 3163.985 L 4346.285 3163.575 L 4345.875 3163.165 L 4345.465 3162.965 L 4344.645 3162.965 L 4344.235 3163.165 L 4343.825 3163.575 L 4343.625 3163.985 L 4343.415 3164.605 L 4343.415 3165.625 L 4343.625 3166.235 L 4343.825 3166.645 L 4344.235 3167.055 L 4344.645 3167.255 L 4345.465 3167.255 L 4345.875 3167.055 L 4346.285 3166.645 L 4346.485 3166.235 L 4346.485 3165.625 M 4345.465 3165.625 L 4346.485 3165.625 M 4352.415 3162.145 L 4352.015 3162.555 L 4351.605 3163.165 L 4351.195 3163.985 L 4350.985 3165.005 L 4350.985 3165.825 L 4351.195 3166.855 L 4351.605 3167.665 L 4352.015 3168.285 L 4352.415 3168.695 M 4356.835 3163.985 L 4356.635 3163.575 L 4356.225 3163.165 L 4355.815 3162.965 L 4354.995 3162.965 L 4354.585 3163.165 L 4354.175 3163.575 L 4353.975 3163.985 L 4353.765 3164.605 L 4353.765 3165.625 L 4353.975 3166.235 L 4354.175 3166.645 L 4354.585 3167.055 L 4354.995 3167.255 L 4355.815 3167.255 L 4356.225 3167.055 L 4356.635 3166.645 L 4356.835 3166.235 L 4356.835 3165.625 M 4355.815 3165.625 L 4356.835 3165.625 M 4358.185 3164.395 L 4358.185 3167.255 M 4358.185 3165.625 L 4358.395 3165.005 L 4358.805 3164.605 L 4359.215 3164.395 L 4359.825 3164.395 M 4361.175 3165.625 L 4363.625 3165.625 L 4363.625 3165.215 L 4363.425 3164.805 L 4363.215 3164.605 L 4362.815 3164.395 L 4362.195 3164.395 L 4361.785 3164.605 L 4361.375 3165.005 L 4361.175 3165.625 L 4361.175 3166.035 L 4361.375 3166.645 L 4361.785 3167.055 L 4362.195 3167.255 L 4362.815 3167.255 L 4363.215 3167.055 L 4363.625 3166.645 M 4364.975 3165.625 L 4367.435 3165.625 L 4367.435 3165.215 L 4367.225 3164.805 L 4367.025 3164.605 L 4366.615 3164.395 L 4366.005 3164.395 L 4365.595 3164.605 L 4365.185 3165.005 L 4364.975 3165.625 L 4364.975 3166.035 L 4365.185 3166.645 L 4365.595 3167.055 L 4366.005 3167.255 L 4366.615 3167.255 L 4367.025 3167.055 L 4367.435 3166.645 M 4368.785 3164.395 L 4368.785 3167.255 M 4368.785 3165.215 L 4369.395 3164.605 L 4369.805 3164.395 L 4370.415 3164.395 L 4370.825 3164.605 L 4371.035 3165.215 L 4371.035 3167.255 M 4372.385 3162.145 L 4372.795 3162.555 L 4373.205 3163.165 L 4373.615 3163.985 L 4373.815 3165.005 L 4373.815 3165.825 L 4373.615 3166.855 L 4373.205 3167.665 L 4372.795 3168.285 L 4372.385 3168.695" fill="none"  stroke-width="0.6" c_note="note_name" /></g><g c_partid="part_pcbtext" c_etype="" c_origin="4326.565,3174.505" c_rotation="0" c_mirror="0" id="gge282" locked="0" layerid="3" c_shapetype="group" display="none"><path c_fontsize="4.5" c_fontfamily="" c_text="LED1" d="M 4326.565 3169.965 L 4326.565 3174.255 M 4326.565 3174.255 L 4329.015 3174.255 M 4330.365 3169.965 L 4330.365 3174.255 M 4330.365 3169.965 L 4333.025 3169.965 M 4330.365 3172.005 L 4332.005 3172.005 M 4330.365 3174.255 L 4333.025 3174.255 M 4334.375 3169.965 L 4334.375 3174.255 M 4334.375 3169.965 L 4335.815 3169.965 L 4336.425 3170.165 L 4336.835 3170.575 L 4337.035 3170.985 L 4337.245 3171.605 L 4337.245 3172.625 L 4337.035 3173.235 L 4336.835 3173.645 L 4336.425 3174.055 L 4335.815 3174.255 L 4334.375 3174.255 M 4338.595 3170.785 L 4339.005 3170.575 L 4339.615 3169.965 L 4339.615 3174.255" fill="none"  stroke-width="0.6" c_note="note_pre" /></g><g c_partid="part_pcbtext" c_etype="" c_origin="4260.453,3189.54" c_rotation="180" c_mirror="0" id="gge663" locked="0" layerid="3" c_shapetype="group" display="none"><path c_fontsize="4.5" c_fontfamily="NotoSerifCJKsc-Medium" c_text="47Ω" d="M 4260.1131 3190.71 L 4259.1431 3192.1 L 4259.1431 3190.71 Z  M 4258.3331 3190.71 L 4258.7931 3190.71 L 4258.7931 3192.52 L 4259.0331 3192.52 L 4260.3331 3190.66 L 4260.3331 3190.45 L 4259.1431 3190.45 L 4259.1431 3189.54 L 4258.7931 3189.54 L 4258.7931 3190.45 L 4258.3331 3190.45 Z  M 4258.0331 3192.47 L 4258.0331 3192.13 L 4256.5031 3192.13 L 4257.6731 3189.58 L 4257.6331 3189.54 L 4257.2931 3189.54 L 4256.2531 3192.26 L 4256.2531 3192.47 Z  M 4253.2631 3190.28 L 4253.3631 3189.85 L 4253.9831 3189.85 L 4253.9831 3189.85 C 4253.5331 3190.17 4253.1731 3190.64 4253.1731 3191.21 C 4253.1731 3192.07 4253.7831 3192.54 4254.4531 3192.54 C 4255.1431 3192.54 4255.7431 3192.07 4255.7431 3191.21 C 4255.7431 3190.64 4255.3831 3190.17 4254.9331 3189.85 L 4254.9331 3189.85 L 4255.5531 3189.85 L 4255.6531 3190.28 L 4255.8831 3190.28 L 4255.8431 3189.54 L 4254.6731 3189.54 L 4254.6731 3189.81 C 4255.0731 3190.14 4255.3331 3190.66 4255.3331 3191.21 C 4255.3331 3191.86 4255.0131 3192.35 4254.4531 3192.35 C 4253.9131 3192.35 4253.5831 3191.86 4253.5831 3191.21 C 4253.5831 3190.66 4253.8431 3190.14 4254.2531 3189.81 L 4254.2531 3189.54 L 4253.0731 3189.54 L 4253.0331 3190.28 Z "  stroke="none" stroke-width="0.6" c_note="note_name" /></g><g c_partid="part_pcbtext" c_etype="" c_origin="4260,3177" c_rotation="180" c_mirror="0" id="gge360" locked="0" layerid="3" c_shapetype="group" display="none"><path c_fontsize="4.5" c_fontfamily="" c_text="R1" d="M 4260 3181.54 L 4260 3177.25 M 4260 3181.54 L 4258.16 3181.54 L 4257.55 3181.34 L 4257.34 3181.13 L 4257.14 3180.72 L 4257.14 3180.31 L 4257.34 3179.9 L 4257.55 3179.7 L 4258.16 3179.5 L 4260 3179.5 M 4258.57 3179.5 L 4257.14 3177.25 M 4255.79 3180.72 L 4255.38 3180.93 L 4254.76 3181.54 L 4254.76 3177.25" fill="none"  stroke-width="0.6" c_note="note_pre" /></g><g c_partid="part_pcbtext" c_etype="" c_origin="4161.844,3166.794" c_rotation="0" c_mirror="0" id="gge426" locked="0" layerid="3" c_shapetype="group" display="none"><path c_fontsize="4.5" c_fontfamily="" c_text="NT3H2111W0FHKH" d="M 4161.8441 3162.2542 L 4161.8441 3166.5442 M 4161.8441 3162.2542 L 4164.7041 3166.5442 M 4164.7041 3162.2542 L 4164.7041 3166.5442 M 4167.4941 3162.2542 L 4167.4941 3166.5442 M 4166.0541 3162.2542 L 4168.9241 3162.2542 M 4170.6841 3162.2542 L 4172.9341 3162.2542 L 4171.7041 3163.8942 L 4172.3141 3163.8942 L 4172.7241 3164.0942 L 4172.9341 3164.2942 L 4173.1341 3164.9142 L 4173.1341 3165.3242 L 4172.9341 3165.9342 L 4172.5241 3166.3442 L 4171.9041 3166.5442 L 4171.2941 3166.5442 L 4170.6841 3166.3442 L 4170.4741 3166.1442 L 4170.2741 3165.7342 M 4174.4841 3162.2542 L 4174.4841 3166.5442 M 4177.3441 3162.2542 L 4177.3441 3166.5442 M 4174.4841 3164.2942 L 4177.3441 3164.2942 M 4178.9041 3163.2742 L 4178.9041 3163.0742 L 4179.1041 3162.6642 L 4179.3141 3162.4542 L 4179.7241 3162.2542 L 4180.5441 3162.2542 L 4180.9441 3162.4542 L 4181.1541 3162.6642 L 4181.3541 3163.0742 L 4181.3541 3163.4842 L 4181.1541 3163.8942 L 4180.7441 3164.5042 L 4178.6941 3166.5442 L 4181.5641 3166.5442 M 4182.9141 3163.0742 L 4183.3241 3162.8642 L 4183.9341 3162.2542 L 4183.9341 3166.5442 M 4185.2841 3163.0742 L 4185.6941 3162.8642 L 4186.3041 3162.2542 L 4186.3041 3166.5442 M 4187.6541 3163.0742 L 4188.0641 3162.8642 L 4188.6841 3162.2542 L 4188.6841 3166.5442 M 4190.0341 3162.2542 L 4191.0541 3166.5442 M 4192.0741 3162.2542 L 4191.0541 3166.5442 M 4192.0741 3162.2542 L 4193.0941 3166.5442 M 4194.1241 3162.2542 L 4193.0941 3166.5442 M 4196.6941 3162.2542 L 4196.0841 3162.4542 L 4195.6741 3163.0742 L 4195.4741 3164.0942 L 4195.4741 3164.7042 L 4195.6741 3165.7342 L 4196.0841 3166.3442 L 4196.6941 3166.5442 L 4197.1041 3166.5442 L 4197.7241 3166.3442 L 4198.1341 3165.7342 L 4198.3341 3164.7042 L 4198.3341 3164.0942 L 4198.1341 3163.0742 L 4197.7241 3162.4542 L 4197.1041 3162.2542 L 4196.6941 3162.2542 M 4199.6841 3162.2542 L 4199.6841 3166.5442 M 4199.6841 3162.2542 L 4202.3441 3162.2542 M 4199.6841 3164.2942 L 4201.3241 3164.2942 M 4203.6941 3162.2542 L 4203.6941 3166.5442 M 4206.5541 3162.2542 L 4206.5541 3166.5442 M 4203.6941 3164.2942 L 4206.5541 3164.2942 M 4207.9041 3162.2542 L 4207.9041 3166.5442 M 4210.7741 3162.2542 L 4207.9041 3165.1142 M 4208.9341 3164.0942 L 4210.7741 3166.5442 M 4212.1241 3162.2542 L 4212.1241 3166.5442 M 4214.9841 3162.2542 L 4214.9841 3166.5442 M 4212.1241 3164.2942 L 4214.9841 3164.2942" fill="none"  stroke-width="0.6" c_note="note_name" /></g><g c_partid="part_pcbtext" c_etype="" c_origin="4161.844,3173.794" c_rotation="0" c_mirror="0" id="gge432" locked="0" layerid="3" c_shapetype="group" display="none"><path c_fontsize="4.5" c_fontfamily="" c_text="U1" d="M 4161.8441 3169.2542 L 4161.8441 3172.3242 L 4162.0441 3172.9342 L 4162.4541 3173.3442 L 4163.0741 3173.5442 L 4163.4841 3173.5442 L 4164.0941 3173.3442 L 4164.5041 3172.9342 L 4164.7041 3172.3242 L 4164.7041 3169.2542 M 4166.0541 3170.0742 L 4166.4641 3169.8642 L 4167.0841 3169.2542 L 4167.0841 3173.5442" fill="none"  stroke-width="0.6" c_note="note_pre" /></g><path d="M 4175.4665 3178.4031 A 1.2198 1.2198 0 0 1 4176.6863 3177.1833" locked="0"  fill="none" stroke-width="1" c_helper_type="arc2" net="" layerid="3" id="gge219" /><path d="M 4176.6863 3182.7725 A 1.2198 1.2198 0 0 1 4175.4665 3181.5526" locked="0"  fill="none" stroke-width="1" c_helper_type="arc2" net="" layerid="3" id="gge222" /><path d="M 4185.2527 3177.2062 A 1.2198 1.2198 0 0 1 4186.4725 3178.4261" locked="0"  fill="none" stroke-width="1" c_helper_type="arc2" net="" layerid="3" id="gge225" /><path d="M 4186.4725 3181.5756 A 1.2198 1.2198 0 0 1 4185.2527 3182.7954" locked="0"  fill="none" stroke-width="1" c_helper_type="arc2" net="" layerid="3" id="gge228" /><circle cx="4160.501" cy="3184.5" r="0.25" stroke-width="1" fill="none" layerid="3" id="gge492" locked="0"  /><polyline points="4020.5 3275.2087 4020.5 3086.3114" stroke-width="1"  stroke-linecap="round" fill="none" layerid="10" net="" id="gge2568" locked="0" /><polyline points="4345.6962 3287.0197 4032.311 3287.0197" stroke-width="1"  stroke-linecap="round" fill="none" layerid="10" net="" id="gge2562" locked="0" /><polyline points="4357.5072 3086.3114 4357.5072 3275.2087" stroke-width="1"  stroke-linecap="round" fill="none" layerid="10" net="" id="gge2556" locked="0" /><polyline points="4032.311 3074.5004 4345.6962 3074.5004" stroke-width="1"  stroke-linecap="round" fill="none" layerid="10" net="" id="gge2550" locked="0" /><path d="M4345.696199 3074.500426A11.811 11.811 0 0 1 4357.507199 3086.311426" locked="0"  fill="none" stroke-width="1" c_helper_type="arc2" net="" layerid="10" id="gge2553" /><path d="M4357.507199 3275.208686A11.811 11.811 0 0 1 4345.696199 3287.019686" locked="0"  fill="none" stroke-width="1" c_helper_type="arc2" net="" layerid="10" id="gge2559" /><path d="M4032.311 3287.019686A11.811 11.811 0 0 1 4020.499999 3275.208686" locked="0"  fill="none" stroke-width="1" c_helper_type="arc2" net="" layerid="10" id="gge2565" /><path d="M4020.499999 3086.311426A11.811 11.811 0 0 1 4032.311 3074.500426" locked="0"  fill="none" stroke-width="1" c_helper_type="arc2" net="" layerid="10" id="gge2571" /></svg>